<?xml version="1.0" standalone="no"?>
<!DOCTYPE svg PUBLIC "-//W3C//DTD SVG 20010904//EN"
 "http://www.w3.org/TR/2001/REC-SVG-20010904/DTD/svg10.dtd">
<svg version="1.0" xmlns="http://www.w3.org/2000/svg"
 width="300.000000pt" height="300.000000pt" viewBox="0 0 300.000000 300.000000"
 preserveAspectRatio="xMidYMid meet">
<metadata>
Created by potrace 1.10, written by Peter Selinger 2001-2011
</metadata>
<g transform="translate(0.000000,300.000000) scale(0.100000,-0.100000)"
fill="#000000" stroke="none">
<path d="M1266 2849 c-82 -12 -196 -44 -291 -81 -440 -171 -768 -579 -849
-1057 -20 -120 -21 -350 -1 -462 100 -575 529 -1015 1096 -1124 320 -61 675
-2 946 159 341 201 565 509 655 896 29 128 36 386 13 521 -97 588 -543 1042
-1120 1143 -98 17 -347 20 -449 5z m466 -59 c132 -27 200 -51 333 -115 331
-160 581 -460 687 -825 82 -283 59 -635 -59 -902 -129 -294 -344 -520 -628
-659 -317 -155 -666 -180 -1000 -72 -366 118 -659 391 -809 755 -63 151 -87
271 -93 454 -7 191 9 312 62 471 159 478 537 809 1030 898 116 22 360 19 477
-5z"/>
<path d="M1400 2645 c0 -88 2 -95 20 -95 16 0 19 8 22 63 l3 62 35 -62 c27
-48 40 -63 58 -63 21 0 22 3 22 95 0 88 -2 95 -20 95 -16 0 -19 -8 -22 -62
l-3 -63 -35 63 c-27 48 -40 62 -57 62 -22 0 -23 -3 -23 -95z"/>
<path d="M1224 2720 c-57 -23 -72 -107 -28 -159 21 -25 33 -31 65 -31 102 0
125 141 32 189 -25 13 -40 13 -69 1z m70 -52 c19 -27 21 -69 4 -86 -31 -31
-88 4 -88 55 0 49 57 70 84 31z"/>
<path d="M1634 2641 c-49 -84 -50 -90 -31 -95 19 -5 31 4 39 27 2 4 18 5 35 1
22 -4 33 -13 35 -28 2 -13 11 -22 27 -24 22 -3 23 -1 18 30 -4 18 -11 63 -18
101 -6 37 -15 67 -19 67 -5 0 -14 2 -22 5 -8 3 -31 -27 -64 -84z m72 -38 c-3
-3 -14 -2 -25 2 -20 6 -20 7 -3 42 l17 35 8 -37 c4 -21 5 -40 3 -42z"/>
<path d="M1817 2608 c-16 -46 -28 -87 -28 -93 0 -5 23 -17 52 -27 41 -14 54
-15 61 -6 13 21 10 24 -31 37 l-39 11 24 62 c13 34 24 67 24 74 0 9 -21 24
-33 24 -1 0 -15 -37 -30 -82z"/>
<path d="M1006 2649 c-52 -41 -17 -103 57 -97 36 3 42 0 42 -17 0 -14 -8 -21
-27 -23 -16 -2 -28 2 -28 8 0 7 -6 7 -22 -1 l-22 -12 24 -19 c41 -33 120 0
120 50 0 40 -17 52 -71 52 -53 0 -72 16 -44 36 12 9 23 10 36 4 9 -6 25 -7 34
-4 14 6 14 8 -1 25 -22 25 -65 24 -98 -2z"/>
<path d="M2055 2583 c-3 -10 -2 -19 3 -21 5 -1 16 -8 25 -15 14 -11 12 -19
-24 -77 -36 -60 -38 -66 -22 -78 15 -11 21 -6 49 40 18 29 36 59 41 67 7 11
13 11 30 3 16 -9 23 -8 33 3 9 11 3 19 -32 41 -24 14 -53 32 -65 40 -28 18
-29 18 -38 -3z"/>
<path d="M835 2568 c-22 -11 -41 -22 -43 -23 -3 -2 79 -153 92 -172 0 -1 9 5
19 12 18 13 18 15 1 40 -25 39 -5 51 36 20 27 -20 36 -22 49 -13 9 7 17 13 19
14 2 1 -12 11 -31 23 -29 18 -33 25 -29 51 5 36 -20 70 -52 70 -12 -1 -39 -10
-61 -22z m73 -43 c1 -12 -6 -25 -18 -33 -18 -11 -22 -9 -32 14 -10 21 -9 27 3
35 21 14 44 6 47 -16z"/>
<path d="M687 2464 c-27 -21 -44 -41 -40 -48 13 -21 107 -136 111 -136 3 0 27
17 53 37 44 33 47 39 34 52 -13 13 -18 12 -45 -14 -28 -27 -31 -28 -47 -12
-16 16 -15 19 15 44 24 21 30 32 23 43 -9 12 -15 10 -39 -13 -33 -32 -38 -33
-46 -10 -5 12 2 25 25 44 19 15 29 31 25 37 -11 18 -19 15 -69 -24z"/>
<path d="M1296 2474 c-382 -76 -664 -336 -783 -721 -25 -82 -27 -100 -27 -273
0 -173 2 -191 27 -274 108 -350 348 -589 698 -693 87 -26 107 -28 269 -28 204
0 267 14 435 94 271 130 464 370 541 671 28 110 26 374 -4 482 -88 320 -313
576 -607 689 -168 65 -383 86 -549 53z m380 -53 c183 -38 339 -125 479 -266
105 -106 170 -209 219 -346 47 -130 60 -223 53 -376 -7 -179 -53 -324 -150
-476 -48 -75 -172 -203 -247 -256 l-60 -42 0 28 c0 15 -10 48 -21 73 -11 25
-30 92 -41 149 -11 60 -32 128 -48 160 -31 63 -103 161 -149 205 -28 27 -31
36 -30 85 2 123 12 163 59 226 24 33 45 62 47 64 1 2 16 -8 34 -23 17 -15 44
-33 60 -42 17 -8 31 -25 35 -42 3 -15 8 -34 10 -43 3 -9 26 -37 51 -63 l47
-46 21 24 c11 13 29 29 41 34 19 10 20 16 13 80 -9 81 -21 104 -66 129 -18 9
-37 29 -42 44 -5 15 -25 44 -44 66 -21 24 -36 53 -40 78 -12 75 -75 125 -158
125 -28 0 -51 6 -59 14 -6 8 -27 20 -45 26 -33 11 -36 10 -77 -34 -55 -56 -86
-65 -133 -36 -19 12 -43 35 -52 51 -21 35 -27 36 -89 4 -27 -14 -64 -25 -81
-25 -46 0 -109 -27 -127 -55 -9 -13 -20 -45 -26 -71 -7 -30 -20 -54 -37 -67
-14 -11 -34 -39 -44 -61 -10 -23 -34 -51 -56 -66 -26 -18 -41 -38 -50 -65 -16
-54 -17 -135 -1 -135 7 0 24 -12 40 -26 l27 -27 36 28 c44 33 75 81 75 116 0
20 13 33 66 68 37 23 68 41 69 39 1 -2 23 -34 48 -72 l47 -68 0 -102 c0 -97
-1 -104 -26 -127 -45 -42 -122 -153 -154 -221 -18 -38 -37 -105 -47 -159 -8
-52 -24 -111 -35 -133 -11 -21 -20 -54 -21 -72 -1 -19 -4 -34 -7 -34 -3 0 -26
15 -51 33 -190 136 -310 303 -375 522 -36 122 -45 329 -19 455 65 323 288 589
595 710 149 59 367 76 536 41z m-297 -475 c80 -67 133 -67 210 3 18 17 35 31
36 31 1 0 17 -8 36 -17 19 -9 57 -20 86 -24 72 -10 109 -40 128 -105 16 -54
46 -99 132 -193 42 -46 54 -67 59 -102 5 -35 2 -49 -14 -69 -17 -21 -23 -23
-45 -13 -14 7 -33 31 -46 60 -35 75 -36 77 -72 101 -64 43 -71 51 -64 81 7 31
-9 86 -18 61 -3 -8 -8 -27 -11 -41 -13 -61 -79 -109 -151 -109 -47 0 -126 20
-120 30 3 5 37 8 75 9 97 1 144 28 184 109 17 33 17 33 -3 22 -12 -6 -28 -21
-36 -34 -21 -31 -86 -62 -159 -75 -57 -10 -81 -25 -70 -43 13 -20 90 -50 129
-50 l43 0 -15 -36 c-9 -21 -18 -81 -21 -137 l-5 -100 37 -45 c155 -192 171
-225 202 -405 7 -42 14 -65 29 -100 25 -58 45 -108 45 -114 0 -12 -119 -63
-134 -58 -21 8 -47 99 -45 154 3 62 -14 92 -97 173 -36 36 -84 91 -105 122
-72 105 -106 106 -185 6 -32 -40 -93 -110 -136 -155 l-78 -83 0 -67 c0 -84
-20 -147 -48 -151 -21 -3 -105 32 -120 51 -6 8 1 37 20 82 16 39 39 115 50
170 24 123 71 220 148 312 31 38 62 78 69 91 18 34 15 214 -4 252 -8 16 -15
31 -15 35 0 3 24 5 53 5 43 0 58 6 87 30 l35 29 -49 -14 c-121 -36 -210 3
-240 106 -13 44 -13 44 -19 14 -2 -16 -5 -41 -5 -53 -1 -21 -35 -62 -52 -62
-16 0 -68 -63 -73 -89 -8 -37 -53 -91 -77 -91 -30 0 -46 33 -42 85 4 41 10 53
58 100 30 29 54 56 54 60 0 4 16 29 36 56 19 27 40 66 46 86 18 67 69 103 145
103 22 0 48 9 63 20 14 11 28 20 32 20 3 0 25 -15 47 -34z m157 -913 c15 -27
71 -92 123 -146 l95 -98 -3 -70 c-2 -57 2 -77 19 -106 11 -19 20 -37 18 -38
-19 -16 -159 -38 -269 -42 -133 -5 -248 8 -325 37 l-25 10 23 31 c20 26 23 41
21 105 l-2 74 98 100 c54 55 109 120 122 145 19 36 29 45 51 45 22 0 32 -9 54
-47z"/>
<path d="M1413 2325 c-44 -19 -63 -61 -63 -137 0 -105 70 -218 135 -218 33 0
81 49 110 113 21 45 24 64 20 117 -3 35 -12 74 -21 87 -31 48 -117 66 -181 38z
m105 -28 c6 -5 12 -6 12 -2 0 4 11 -4 25 -19 21 -23 25 -37 25 -87 0 -69 -16
-114 -54 -152 -36 -36 -59 -34 -95 11 -49 58 -66 149 -39 208 19 41 93 66 126
41z"/>
<path d="M723 1528 c-21 -28 -93 -237 -87 -252 8 -21 50 -32 68 -17 7 6 18 29
25 51 7 23 18 40 27 40 18 0 36 42 22 51 -7 4 -4 26 7 58 13 41 14 55 5 66
-15 18 -54 20 -67 3z m12 -68 c-3 -5 -2 -10 3 -10 5 0 7 -12 5 -27 -7 -42 -46
-113 -62 -113 -12 0 -12 3 -3 12 7 7 12 20 12 29 0 10 4 28 9 41 5 13 10 28
11 33 3 16 20 45 26 45 3 0 2 -4 -1 -10z"/>
<path d="M2170 1520 c-8 -16 -6 -31 10 -67 14 -33 17 -49 9 -54 -15 -9 -1 -52
15 -46 7 3 19 -14 29 -43 9 -26 24 -51 33 -54 18 -7 64 18 64 34 0 5 -13 42
-28 82 -16 40 -36 94 -46 121 -15 41 -21 47 -46 47 -19 0 -33 -7 -40 -20z m68
-70 c2 -13 11 -34 19 -47 18 -28 34 -93 22 -93 -4 0 -19 19 -33 43 -28 48 -43
131 -23 124 6 -2 14 -14 15 -27z"/>
<path d="M633 1518 c-5 -7 -22 -47 -37 -88 -26 -70 -26 -75 -10 -87 10 -7 21
-13 25 -13 8 0 69 154 69 175 0 7 -7 16 -16 19 -21 8 -20 8 -31 -6z"/>
<path d="M2293 1523 c-18 -7 -16 -19 16 -101 34 -89 45 -102 67 -80 14 14 14
22 -11 89 -34 95 -42 105 -72 92z"/>
<path d="M820 1398 c-24 -39 -34 -73 -27 -91 2 -7 31 -21 63 -31 l58 -18 18
22 c30 38 23 73 -23 114 -23 20 -48 36 -55 36 -8 0 -23 -15 -34 -32z m90 -69
c0 -25 -13 -30 -49 -18 -34 12 -39 33 -14 61 16 18 17 18 40 -4 13 -12 23 -29
23 -39z"/>
<path d="M2051 1386 c-46 -47 -49 -67 -18 -110 13 -18 16 -18 69 -2 74 21 83
34 63 82 -18 43 -43 74 -59 74 -7 0 -31 -20 -55 -44z m77 -31 c6 -13 8 -27 3
-29 -57 -36 -96 -18 -60 28 26 33 43 33 57 1z"/>
<path d="M1042 1407 c-7 -8 -18 -32 -26 -53 -8 -25 -19 -38 -28 -36 -19 3 -32
-39 -16 -49 8 -5 6 -19 -6 -48 -21 -54 -21 -58 8 -76 41 -27 57 -8 101 119 31
91 37 120 29 134 -14 22 -47 27 -62 9z m10 -121 c-10 -32 -21 -52 -28 -49 -8
3 -10 -5 -6 -23 4 -20 2 -25 -8 -19 -17 11 -3 91 22 126 30 41 38 27 20 -35z"/>
<path d="M1865 1407 c-22 -17 -20 -29 32 -162 34 -87 42 -100 64 -103 15 -2
32 4 39 14 12 14 12 23 -2 62 -12 32 -14 48 -6 53 15 9 -1 52 -17 45 -9 -3
-19 11 -30 44 -20 59 -43 73 -80 47z m45 -56 c0 -5 11 -22 24 -38 14 -17 25
-46 28 -76 7 -60 -10 -58 -32 4 -9 24 -19 51 -22 59 -13 32 -16 60 -7 60 5 0
9 -4 9 -9z"/>
<path d="M1119 1313 c-5 -16 -19 -52 -30 -80 -22 -54 -20 -83 4 -83 20 0 31
16 59 91 17 46 22 71 16 83 -14 25 -37 19 -49 -11z"/>
<path d="M1794 1326 c-8 -21 45 -166 63 -173 8 -3 21 1 28 8 11 12 8 27 -19
94 -32 79 -59 105 -72 71z"/>
<path d="M1192 1739 c35 -62 88 -89 177 -89 85 0 87 15 3 25 -72 9 -110 26
-152 70 -45 47 -56 44 -28 -6z"/>
<path d="M2175 2409 c-53 -66 -56 -71 -38 -84 16 -12 20 -10 36 16 25 38 41
27 33 -23 -4 -25 -2 -46 5 -54 18 -22 29 -17 29 14 0 35 8 45 45 57 25 9 31
16 33 46 3 31 -2 41 -33 68 -20 17 -40 31 -44 31 -5 0 -34 -32 -66 -71z m93 9
c14 -14 16 -45 2 -53 -13 -8 -50 13 -50 28 0 13 19 37 30 37 3 0 11 -5 18 -12z"/>
<path d="M541 2323 l-42 -38 71 -69 c67 -66 72 -69 88 -52 16 16 16 18 -8 36
-23 17 -23 20 -8 37 29 31 31 66 8 96 -29 37 -60 34 -109 -10z m83 -26 c8 -13
6 -21 -7 -34 -16 -16 -18 -16 -40 5 -22 23 -22 23 -2 38 22 17 34 14 49 -9z"/>
<path d="M2335 2274 c-44 -19 -81 -37 -84 -39 -2 -3 2 -11 9 -20 8 -10 17 -12
30 -5 13 7 23 3 39 -14 20 -21 21 -27 9 -45 -11 -17 -10 -23 4 -37 14 -15 20
-9 66 73 46 81 49 89 34 106 -19 21 -11 22 -107 -19z m58 -41 c-9 -16 -18 -30
-20 -32 -4 -5 -33 20 -33 29 0 8 39 28 58 29 9 1 8 -7 -5 -26z"/>
<path d="M2445 2129 c-76 -54 -79 -57 -66 -78 7 -10 26 -1 89 41 67 45 79 56
71 71 -6 9 -13 17 -17 16 -4 0 -38 -23 -77 -50z"/>
<path d="M380 2095 c-18 -31 -31 -58 -29 -59 2 -2 40 -24 83 -49 l80 -46 33
56 c30 49 32 58 20 71 -13 13 -17 11 -31 -14 -26 -49 -32 -55 -49 -48 -22 8
-21 20 3 54 17 25 18 29 4 34 -22 9 -22 9 -39 -24 -17 -32 -22 -35 -44 -21
-11 7 -10 15 9 41 20 28 21 33 8 47 -14 13 -19 9 -48 -42z"/>
<path d="M2495 2044 c-60 -32 -79 -48 -77 -61 6 -28 8 -27 63 6 28 18 53 31
54 29 2 -2 -14 -31 -36 -65 -35 -57 -43 -93 -18 -93 16 0 169 80 169 88 -1 29
-18 29 -68 2 -28 -15 -52 -26 -52 -23 0 3 16 32 36 64 29 48 33 62 24 79 -6
11 -12 20 -13 19 -1 0 -38 -20 -82 -45z"/>
<path d="M309 1949 c-8 -16 -5 -21 18 -30 15 -6 40 -13 56 -16 44 -9 32 -19
-40 -35 -55 -11 -69 -18 -71 -34 -3 -18 10 -26 85 -52 86 -31 112 -31 100 1
-3 8 -28 21 -56 28 -28 7 -48 16 -44 19 5 4 36 13 71 20 58 12 66 19 60 48 0
4 -39 21 -85 38 -80 31 -84 31 -94 13z"/>
<path d="M2582 1842 c-75 -20 -92 -28 -87 -41 4 -9 11 -37 17 -63 9 -37 16
-48 31 -48 20 0 20 11 1 76 -4 16 0 23 16 27 22 6 24 3 35 -46 4 -20 11 -27
23 -25 9 2 16 10 14 18 -15 66 -15 70 6 70 16 0 23 -8 28 -35 5 -26 11 -35 26
-35 22 0 22 -1 -3 93 -5 20 -11 37 -12 36 -1 0 -44 -12 -95 -27z"/>
<path d="M256 1699 c-35 -41 -34 -83 3 -120 23 -22 39 -29 69 -29 54 0 70 7
87 41 23 43 18 77 -14 110 -24 23 -38 29 -74 29 -38 0 -49 -5 -71 -31z m112
-25 c33 -23 26 -65 -11 -78 -56 -20 -111 39 -72 78 21 20 54 21 83 0z"/>
<path d="M2627 1665 c-48 -5 -87 -13 -87 -17 0 -5 0 -15 0 -23 0 -13 7 -15 35
-9 47 8 48 -17 1 -44 -28 -16 -33 -25 -29 -46 l5 -25 35 26 c26 20 37 23 45
15 16 -16 71 -15 86 0 13 13 17 125 5 130 -5 2 -48 -1 -96 -7z m67 -50 c9 -25
-5 -46 -28 -43 -15 2 -22 11 -24 31 -3 23 0 27 21 27 14 0 27 -7 31 -15z"/>
<path d="M376 1044 c-34 -34 -9 -78 41 -72 22 2 29 9 31 31 6 50 -38 75 -72
41z"/>
<path d="M2515 1036 c-30 -45 16 -91 61 -61 29 18 31 46 6 68 -26 24 -49 21
-67 -7z"/>
<path d="M813 508 l-42 -69 32 -20 c64 -39 114 -32 104 17 -2 13 3 26 15 33
36 22 11 67 -57 103 -5 3 -29 -25 -52 -64z m87 7 c9 -11 10 -19 3 -26 -15 -15
-54 7 -47 26 8 19 28 19 44 0z m-35 -49 c18 -13 16 -46 -3 -46 -20 0 -43 26
-36 43 8 21 14 21 39 3z"/>
<path d="M2042 540 c-19 -11 -32 -24 -30 -28 2 -4 20 -35 41 -69 l39 -61 34
20 c60 35 72 91 29 133 -30 31 -68 32 -113 5z m74 -18 c11 -7 34 -45 34 -56 0
-8 -31 -36 -40 -36 -13 0 -51 72 -46 86 6 15 34 18 52 6z"/>
<path d="M1945 489 c-22 -10 -44 -20 -49 -22 -6 -2 5 -38 23 -79 l34 -76 46
21 c25 12 48 23 50 24 2 1 1 9 -3 18 -5 15 -10 14 -41 -5 -32 -20 -36 -20 -42
-4 -7 18 19 44 45 44 7 0 12 6 9 13 -2 6 -13 11 -23 9 -44 -7 -57 -6 -61 5 -2
7 12 19 31 27 25 11 34 19 30 30 -3 9 -7 16 -8 15 0 0 -19 -9 -41 -20z"/>
<path d="M965 466 c-8 -20 -22 -52 -30 -73 -8 -20 -14 -37 -12 -39 1 -2 23
-12 47 -23 32 -14 47 -17 52 -8 10 16 2 25 -32 32 -32 7 -35 12 -21 34 8 12
14 13 36 3 26 -12 45 -9 45 8 0 5 -13 11 -30 15 -21 5 -30 13 -30 26 0 23 12
24 49 4 16 -8 31 -11 35 -8 15 15 3 31 -31 42 -21 7 -44 15 -51 18 -7 3 -18
-9 -27 -31z"/>
<path d="M1782 424 c-27 -19 -29 -60 -3 -74 11 -5 33 -10 50 -10 36 0 47 -13
25 -31 -12 -9 -20 -10 -33 -2 -11 7 -23 8 -32 2 -12 -8 -11 -12 5 -24 24 -18
37 -19 71 -3 29 13 43 52 25 73 -6 7 -30 15 -53 17 -29 2 -42 8 -42 18 0 11
10 14 38 13 26 -2 37 2 37 11 0 28 -54 34 -88 10z"/>
<path d="M1136 367 c-8 -35 -18 -71 -22 -80 -4 -12 -1 -17 14 -17 15 0 22 9
27 31 4 17 12 28 18 26 51 -19 59 -19 55 0 -2 11 -13 19 -31 21 -28 3 -31 9
-21 36 4 12 11 13 32 5 27 -10 52 -6 52 10 0 7 -80 31 -104 31 -2 0 -11 -29
-20 -63z"/>
<path d="M1697 373 c4 -21 7 -51 8 -68 0 -25 -4 -30 -25 -30 -26 0 -37 23 -39
83 -1 25 -5 32 -21 32 -18 0 -19 -5 -14 -47 10 -80 23 -98 71 -101 60 -4 75
21 61 106 -9 51 -14 62 -30 62 -17 0 -18 -5 -11 -37z"/>
<path d="M1304 388 c-26 -12 -44 -48 -44 -88 0 -67 88 -96 129 -44 54 69 -10
168 -85 132z m66 -71 c0 -54 -47 -79 -70 -38 -15 29 -12 49 10 71 29 29 60 11
60 -33z"/>
<path d="M1466 369 c-21 -16 -26 -29 -26 -64 0 -51 28 -85 70 -85 31 0 70 25
70 46 0 18 -24 18 -40 -1 -31 -38 -80 5 -66 59 8 31 45 45 61 22 13 -18 45
-22 45 -6 0 19 -40 50 -64 50 -13 0 -35 -9 -50 -21z"/>
</g>
</svg>
